<svg xmlns="http://www.w3.org/2000/svg" xmlns:xlink="http://www.w3.org/1999/xlink" contentStyleType="text/css" data-diagram-type="CLASS" height="974px" preserveAspectRatio="none" style="width:1854px;height:974px;background:#FFFFFF;" version="1.1" viewBox="0 0 1854 974" width="1854px" zoomAndPan="magnify"><defs/><g><!--class Categoria--><g class="entity" data-entity="Categoria" data-source-line="5" data-uid="ent0002" id="entity_Categoria"><rect fill="#F1F1F1" height="178.375" rx="2.5" ry="2.5" style="stroke:#181818;stroke-width:0.5;" width="289.3818" x="21.51" y="31.45"/><ellipse cx="127.884" cy="47.45" fill="#ADD1B2" rx="11" ry="11" style="stroke:#181818;stroke-width:1;"/><path d="M130.8528,53.0906 Q130.2746,53.3875 129.634,53.5281 Q128.9934,53.6844 128.2903,53.6844 Q125.7903,53.6844 124.4621,52.0437 Q123.1496,50.3875 123.1496,47.2625 Q123.1496,44.1375 124.4621,42.4812 Q125.7903,40.825 128.2903,40.825 Q128.9934,40.825 129.634,40.9812 Q130.2903,41.1375 130.8528,41.4344 L130.8528,44.1531 Q130.2278,43.575 129.634,43.3094 Q129.0403,43.0281 128.4153,43.0281 Q127.0715,43.0281 126.384,44.1062 Q125.6965,45.1687 125.6965,47.2625 Q125.6965,49.3562 126.384,50.4344 Q127.0715,51.4969 128.4153,51.4969 Q129.0403,51.4969 129.634,51.2312 Q130.2278,50.95 130.8528,50.3719 L130.8528,53.0906 Z " fill="#000000"/><text fill="#000000" font-family="sans-serif" font-size="14" lengthAdjust="spacing" textLength="68.1338" x="148.384" y="52.2967">Categoria</text><line style="stroke:#181818;stroke-width:0.5;" x1="22.51" x2="309.8918" y1="63.45" y2="63.45"/><text fill="#000000" font-family="sans-serif" font-size="14" lengthAdjust="spacing" textLength="45.2471" x="27.51" y="80.4451">-id: int</text><text fill="#000000" font-family="sans-serif" font-size="14" lengthAdjust="spacing" textLength="87.0898" x="27.51" y="96.742">-nombre: str</text><text fill="#000000" font-family="sans-serif" font-size="14" lengthAdjust="spacing" textLength="112.8066" x="27.51" y="113.0389">-descripcion: str</text><text fill="#000000" font-family="sans-serif" font-size="14" lengthAdjust="spacing" textLength="125.0635" x="27.51" y="129.3357">-cargaTrabajo: str</text><text fill="#000000" font-family="sans-serif" font-size="14" lengthAdjust="spacing" textLength="270.2861" x="27.51" y="145.6326">-configuraciones: List&lt;Configuracion&gt;</text><line style="stroke:#181818;stroke-width:1;" x1="22.51" x2="309.8918" y1="152.9344" y2="152.9344"/><text fill="#000000" font-family="sans-serif" font-size="14" lengthAdjust="spacing" textLength="223.2275" x="27.51" y="169.9295">+to_xml_element(): ET.Element</text><text fill="#000000" font-family="sans-serif" font-size="14" lengthAdjust="spacing" textLength="277.3818" x="27.51" y="186.2264">+from_element(ET.Element): Categoria</text><text fill="#000000" font-family="sans-serif" font-size="14" lengthAdjust="spacing" textLength="245.5264" x="27.51" y="202.5232">+write_xml(List&lt;Categoria&gt;): void</text></g><!--class Configuracion--><g class="entity" data-entity="Configuracion" data-source-line="17" data-uid="ent0003" id="entity_Configuracion"><rect fill="#F1F1F1" height="145.7813" rx="2.5" ry="2.5" style="stroke:#181818;stroke-width:0.5;" width="318.4004" x="7" y="335.71"/><ellipse cx="113.374" cy="351.71" fill="#ADD1B2" rx="11" ry="11" style="stroke:#181818;stroke-width:1;"/><path d="M116.3428,357.3506 Q115.7646,357.6475 115.124,357.7881 Q114.4834,357.9444 113.7803,357.9444 Q111.2803,357.9444 109.9521,356.3037 Q108.6396,354.6475 108.6396,351.5225 Q108.6396,348.3975 109.9521,346.7412 Q111.2803,345.085 113.7803,345.085 Q114.4834,345.085 115.124,345.2412 Q115.7803,345.3975 116.3428,345.6944 L116.3428,348.4131 Q115.7178,347.835 115.124,347.5694 Q114.5303,347.2881 113.9053,347.2881 Q112.5615,347.2881 111.874,348.3662 Q111.1865,349.4287 111.1865,351.5225 Q111.1865,353.6162 111.874,354.6944 Q112.5615,355.7569 113.9053,355.7569 Q114.5303,355.7569 115.124,355.4912 Q115.7178,355.21 116.3428,354.6319 L116.3428,357.3506 Z " fill="#000000"/><text fill="#000000" font-family="sans-serif" font-size="14" lengthAdjust="spacing" textLength="97.1523" x="133.874" y="356.5567">Configuracion</text><line style="stroke:#181818;stroke-width:0.5;" x1="8" x2="324.4004" y1="367.71" y2="367.71"/><text fill="#000000" font-family="sans-serif" font-size="14" lengthAdjust="spacing" textLength="45.2471" x="13" y="384.7051">-id: int</text><text fill="#000000" font-family="sans-serif" font-size="14" lengthAdjust="spacing" textLength="87.0898" x="13" y="401.002">-nombre: str</text><text fill="#000000" font-family="sans-serif" font-size="14" lengthAdjust="spacing" textLength="112.8066" x="13" y="417.2989">-descripcion: str</text><text fill="#000000" font-family="sans-serif" font-size="14" lengthAdjust="spacing" textLength="183.9893" x="13" y="433.5957">-recursos: Dict&lt;int, float&gt;</text><line style="stroke:#181818;stroke-width:1;" x1="8" x2="324.4004" y1="440.8975" y2="440.8975"/><text fill="#000000" font-family="sans-serif" font-size="14" lengthAdjust="spacing" textLength="223.2275" x="13" y="457.8926">+to_xml_element(): ET.Element</text><text fill="#000000" font-family="sans-serif" font-size="14" lengthAdjust="spacing" textLength="306.4004" x="13" y="474.1895">+from_element(ET.Element): Configuracion</text></g><!--class Recurso--><g class="entity" data-entity="Recurso" data-source-line="27" data-uid="ent0004" id="entity_Recurso"><rect fill="#F1F1F1" height="210.9688" rx="2.5" ry="2.5" style="stroke:#181818;stroke-width:0.5;" width="301.6182" x="1366.39" y="582.94"/><ellipse cx="1484.6859" cy="598.94" fill="#ADD1B2" rx="11" ry="11" style="stroke:#181818;stroke-width:1;"/><path d="M1487.6546,604.5806 Q1487.0765,604.8775 1486.4359,605.0181 Q1485.7953,605.1744 1485.0921,605.1744 Q1482.5921,605.1744 1481.264,603.5337 Q1479.9515,601.8775 1479.9515,598.7525 Q1479.9515,595.6275 1481.264,593.9712 Q1482.5921,592.315 1485.0921,592.315 Q1485.7953,592.315 1486.4359,592.4712 Q1487.0921,592.6275 1487.6546,592.9244 L1487.6546,595.6431 Q1487.0296,595.065 1486.4359,594.7994 Q1485.8421,594.5181 1485.2171,594.5181 Q1483.8734,594.5181 1483.1859,595.5962 Q1482.4984,596.6587 1482.4984,598.7525 Q1482.4984,600.8462 1483.1859,601.9244 Q1483.8734,602.9869 1485.2171,602.9869 Q1485.8421,602.9869 1486.4359,602.7212 Q1487.0296,602.44 1487.6546,601.8619 L1487.6546,604.5806 Z " fill="#000000"/><text fill="#000000" font-family="sans-serif" font-size="14" lengthAdjust="spacing" textLength="56.5264" x="1505.1859" y="603.7867">Recurso</text><line style="stroke:#181818;stroke-width:0.5;" x1="1367.39" x2="1667.0082" y1="614.94" y2="614.94"/><text fill="#000000" font-family="sans-serif" font-size="14" lengthAdjust="spacing" textLength="45.2471" x="1372.39" y="631.9351">-id: int</text><text fill="#000000" font-family="sans-serif" font-size="14" lengthAdjust="spacing" textLength="87.0898" x="1372.39" y="648.232">-nombre: str</text><text fill="#000000" font-family="sans-serif" font-size="14" lengthAdjust="spacing" textLength="114.0439" x="1372.39" y="664.5289">-abreviatura: str</text><text fill="#000000" font-family="sans-serif" font-size="14" lengthAdjust="spacing" textLength="86.4199" x="1372.39" y="680.8257">-metrica: str</text><text fill="#000000" font-family="sans-serif" font-size="14" lengthAdjust="spacing" textLength="59.5889" x="1372.39" y="697.1226">-tipo: str</text><text fill="#000000" font-family="sans-serif" font-size="14" lengthAdjust="spacing" textLength="122.1104" x="1372.39" y="713.4195">-valorXhora: float</text><line style="stroke:#181818;stroke-width:1;" x1="1367.39" x2="1667.0082" y1="720.7212" y2="720.7212"/><text fill="#000000" font-family="sans-serif" font-size="14" lengthAdjust="spacing" textLength="223.2275" x="1372.39" y="737.7164">+to_xml_element(): ET.Element</text><text fill="#000000" font-family="sans-serif" font-size="14" lengthAdjust="spacing" textLength="265.7744" x="1372.39" y="754.0132">+from_element(ET.Element): Recurso</text><text fill="#000000" font-family="sans-serif" font-size="14" lengthAdjust="spacing" textLength="233.9189" x="1372.39" y="770.3101">+write_xml(List&lt;Recurso&gt;): void</text><text fill="#000000" font-family="sans-serif" font-size="14" lengthAdjust="spacing" textLength="289.6182" x="1372.39" y="786.607">+get_dict_recursos(): Dict&lt;int, Recurso&gt;</text></g><!--class Cliente--><g class="entity" data-entity="Cliente" data-source-line="41" data-uid="ent0005" id="entity_Cliente"><rect fill="#F1F1F1" height="227.2656" rx="2.5" ry="2.5" style="stroke:#181818;stroke-width:0.5;" width="378.8711" x="400.76" y="7"/><ellipse cx="561.3738" cy="23" fill="#ADD1B2" rx="11" ry="11" style="stroke:#181818;stroke-width:1;"/><path d="M564.3425,28.6406 Q563.7644,28.9375 563.1238,29.0781 Q562.4831,29.2344 561.78,29.2344 Q559.28,29.2344 557.9519,27.5938 Q556.6394,25.9375 556.6394,22.8125 Q556.6394,19.6875 557.9519,18.0313 Q559.28,16.375 561.78,16.375 Q562.4831,16.375 563.1238,16.5313 Q563.78,16.6875 564.3425,16.9844 L564.3425,19.7031 Q563.7175,19.125 563.1238,18.8594 Q562.53,18.5781 561.905,18.5781 Q560.5613,18.5781 559.8738,19.6563 Q559.1863,20.7188 559.1863,22.8125 Q559.1863,24.9063 559.8738,25.9844 Q560.5613,27.0469 561.905,27.0469 Q562.53,27.0469 563.1238,26.7813 Q563.7175,26.5 564.3425,25.9219 L564.3425,28.6406 Z " fill="#000000"/><text fill="#000000" font-family="sans-serif" font-size="14" lengthAdjust="spacing" textLength="49.1436" x="581.8738" y="27.8467">Cliente</text><line style="stroke:#181818;stroke-width:0.5;" x1="401.76" x2="778.6311" y1="39" y2="39"/><text fill="#000000" font-family="sans-serif" font-size="14" lengthAdjust="spacing" textLength="51.0098" x="406.76" y="55.9951">-nit: str</text><text fill="#000000" font-family="sans-serif" font-size="14" lengthAdjust="spacing" textLength="87.0898" x="406.76" y="72.292">-nombre: str</text><text fill="#000000" font-family="sans-serif" font-size="14" lengthAdjust="spacing" textLength="84.5879" x="406.76" y="88.5889">-usuario: str</text><text fill="#000000" font-family="sans-serif" font-size="14" lengthAdjust="spacing" textLength="69.8223" x="406.76" y="104.8857">-clave: str</text><text fill="#000000" font-family="sans-serif" font-size="14" lengthAdjust="spacing" textLength="96.626" x="406.76" y="121.1826">-direccion: str</text><text fill="#000000" font-family="sans-serif" font-size="14" lengthAdjust="spacing" textLength="155.5928" x="406.76" y="137.4795">-correoElectronico: str</text><text fill="#000000" font-family="sans-serif" font-size="14" lengthAdjust="spacing" textLength="196.0137" x="406.76" y="153.7764">-instancias: List&lt;Instancia&gt;</text><line style="stroke:#181818;stroke-width:1;" x1="401.76" x2="778.6311" y1="161.0781" y2="161.0781"/><text fill="#000000" font-family="sans-serif" font-size="14" lengthAdjust="spacing" textLength="223.2275" x="406.76" y="178.0732">+to_xml_element(): ET.Element</text><text fill="#000000" font-family="sans-serif" font-size="14" lengthAdjust="spacing" textLength="366.8711" x="406.76" y="194.3701">+from_element(ET.Element): (Cliente, Optional[str])</text><text fill="#000000" font-family="sans-serif" font-size="14" lengthAdjust="spacing" textLength="226.5361" x="406.76" y="210.667">+write_xml(List&lt;Cliente&gt;): void</text><text fill="#000000" font-family="sans-serif" font-size="14" lengthAdjust="spacing" textLength="171.6299" x="406.76" y="226.9639">+get_by_nit(nit): Cliente</text></g><!--class Instancia--><g class="entity" data-entity="Instancia" data-source-line="56" data-uid="ent0006" id="entity_Instancia"><rect fill="#F1F1F1" height="194.6719" rx="2.5" ry="2.5" style="stroke:#181818;stroke-width:0.5;" width="284.6514" x="610.87" y="311.27"/><ellipse cx="717.244" cy="327.27" fill="#ADD1B2" rx="11" ry="11" style="stroke:#181818;stroke-width:1;"/><path d="M720.2128,332.9106 Q719.6346,333.2075 718.994,333.3481 Q718.3534,333.5044 717.6503,333.5044 Q715.1503,333.5044 713.8221,331.8638 Q712.5096,330.2075 712.5096,327.0825 Q712.5096,323.9575 713.8221,322.3013 Q715.1503,320.645 717.6503,320.645 Q718.3534,320.645 718.994,320.8013 Q719.6503,320.9575 720.2128,321.2544 L720.2128,323.9731 Q719.5878,323.395 718.994,323.1294 Q718.4003,322.8481 717.7753,322.8481 Q716.4315,322.8481 715.744,323.9263 Q715.0565,324.9888 715.0565,327.0825 Q715.0565,329.1763 715.744,330.2544 Q716.4315,331.3169 717.7753,331.3169 Q718.4003,331.3169 718.994,331.0513 Q719.5878,330.77 720.2128,330.1919 L720.2128,332.9106 Z " fill="#000000"/><text fill="#000000" font-family="sans-serif" font-size="14" lengthAdjust="spacing" textLength="63.4033" x="737.744" y="332.1167">Instancia</text><line style="stroke:#181818;stroke-width:0.5;" x1="611.87" x2="894.5214" y1="343.27" y2="343.27"/><text fill="#000000" font-family="sans-serif" font-size="14" lengthAdjust="spacing" textLength="45.2471" x="616.87" y="360.2651">-id: int</text><text fill="#000000" font-family="sans-serif" font-size="14" lengthAdjust="spacing" textLength="142.3994" x="616.87" y="376.562">-idConfiguracion: int</text><text fill="#000000" font-family="sans-serif" font-size="14" lengthAdjust="spacing" textLength="87.0898" x="616.87" y="392.8589">-nombre: str</text><text fill="#000000" font-family="sans-serif" font-size="14" lengthAdjust="spacing" textLength="131.7695" x="616.87" y="409.1557">-fechaInicio: Fecha</text><text fill="#000000" font-family="sans-serif" font-size="14" lengthAdjust="spacing" textLength="80.1855" x="616.87" y="425.4526">-estado: str</text><text fill="#000000" font-family="sans-serif" font-size="14" lengthAdjust="spacing" textLength="135.4404" x="616.87" y="441.7495">-fechaFinal: Fecha?</text><line style="stroke:#181818;stroke-width:1;" x1="611.87" x2="894.5214" y1="449.0513" y2="449.0513"/><text fill="#000000" font-family="sans-serif" font-size="14" lengthAdjust="spacing" textLength="223.2275" x="616.87" y="466.0464">+to_xml_element(): ET.Element</text><text fill="#000000" font-family="sans-serif" font-size="14" lengthAdjust="spacing" textLength="272.6514" x="616.87" y="482.3432">+from_element(ET.Element): Instancia</text><text fill="#000000" font-family="sans-serif" font-size="14" lengthAdjust="spacing" textLength="144.9014" x="616.87" y="498.6401">+check_state(): void</text></g><!--class GrupoConsumos--><g class="entity" data-entity="GrupoConsumos" data-source-line="69" data-uid="ent0007" id="entity_GrupoConsumos"><rect fill="#F1F1F1" height="162.0781" rx="2.5" ry="2.5" style="stroke:#181818;stroke-width:0.5;" width="322.7275" x="930.84" y="327.57"/><ellipse cx="1030.05" cy="343.57" fill="#ADD1B2" rx="11" ry="11" style="stroke:#181818;stroke-width:1;"/><path d="M1033.0187,349.2106 Q1032.4406,349.5075 1031.8,349.6481 Q1031.1593,349.8044 1030.4562,349.8044 Q1027.9562,349.8044 1026.6281,348.1637 Q1025.3156,346.5075 1025.3156,343.3825 Q1025.3156,340.2575 1026.6281,338.6012 Q1027.9562,336.945 1030.4562,336.945 Q1031.1593,336.945 1031.8,337.1012 Q1032.4562,337.2575 1033.0187,337.5544 L1033.0187,340.2731 Q1032.3937,339.695 1031.8,339.4294 Q1031.2062,339.1481 1030.5812,339.1481 Q1029.2375,339.1481 1028.55,340.2262 Q1027.8625,341.2887 1027.8625,343.3825 Q1027.8625,345.4762 1028.55,346.5544 Q1029.2375,347.6169 1030.5812,347.6169 Q1031.2062,347.6169 1031.8,347.3512 Q1032.3937,347.07 1033.0187,346.4919 L1033.0187,349.2106 Z " fill="#000000"/><text fill="#000000" font-family="sans-serif" font-size="14" lengthAdjust="spacing" textLength="115.8076" x="1050.55" y="348.4167">GrupoConsumos</text><line style="stroke:#181818;stroke-width:0.5;" x1="931.84" x2="1252.5675" y1="359.57" y2="359.57"/><text fill="#000000" font-family="sans-serif" font-size="14" lengthAdjust="spacing" textLength="100.1533" x="936.84" y="376.5651">-nitCliente: str</text><text fill="#000000" font-family="sans-serif" font-size="14" lengthAdjust="spacing" textLength="108.6504" x="936.84" y="392.862">-idInstancia: int</text><text fill="#000000" font-family="sans-serif" font-size="14" lengthAdjust="spacing" textLength="198.5361" x="936.84" y="409.1589">-consumos: List&lt;Consumo&gt;</text><line style="stroke:#181818;stroke-width:1;" x1="931.84" x2="1252.5675" y1="416.4606" y2="416.4606"/><text fill="#000000" font-family="sans-serif" font-size="14" lengthAdjust="spacing" textLength="223.2275" x="936.84" y="433.4557">+to_xml_element(): ET.Element</text><text fill="#000000" font-family="sans-serif" font-size="14" lengthAdjust="spacing" textLength="293.2002" x="936.84" y="449.7526">+write_xml(List&lt;GrupoConsumos&gt;): void</text><text fill="#000000" font-family="sans-serif" font-size="14" lengthAdjust="spacing" textLength="310.7275" x="936.84" y="466.0495">+append_xml(List&lt;GrupoConsumos&gt;): void</text><text fill="#000000" font-family="sans-serif" font-size="14" lengthAdjust="spacing" textLength="248.8418" x="936.84" y="482.3464">+load_all(): List&lt;GrupoConsumos&gt;</text></g><!--class Consumo--><g class="entity" data-entity="Consumo" data-source-line="80" data-uid="ent0008" id="entity_Consumo"><rect fill="#F1F1F1" height="129.4844" rx="2.5" ry="2.5" style="stroke:#181818;stroke-width:0.5;" width="319.6445" x="902.38" y="623.68"/><ellipse cx="1025.1603" cy="639.68" fill="#ADD1B2" rx="11" ry="11" style="stroke:#181818;stroke-width:1;"/><path d="M1028.129,645.3206 Q1027.5509,645.6175 1026.9103,645.7581 Q1026.2696,645.9144 1025.5665,645.9144 Q1023.0665,645.9144 1021.7384,644.2738 Q1020.4259,642.6175 1020.4259,639.4925 Q1020.4259,636.3675 1021.7384,634.7113 Q1023.0665,633.055 1025.5665,633.055 Q1026.2696,633.055 1026.9103,633.2113 Q1027.5665,633.3675 1028.129,633.6644 L1028.129,636.3831 Q1027.504,635.805 1026.9103,635.5394 Q1026.3165,635.2581 1025.6915,635.2581 Q1024.3478,635.2581 1023.6603,636.3363 Q1022.9728,637.3988 1022.9728,639.4925 Q1022.9728,641.5863 1023.6603,642.6644 Q1024.3478,643.7269 1025.6915,643.7269 Q1026.3165,643.7269 1026.9103,643.4613 Q1027.504,643.18 1028.129,642.6019 L1028.129,645.3206 Z " fill="#000000"/><text fill="#000000" font-family="sans-serif" font-size="14" lengthAdjust="spacing" textLength="65.584" x="1045.6603" y="644.5267">Consumo</text><line style="stroke:#181818;stroke-width:0.5;" x1="903.38" x2="1221.0245" y1="655.68" y2="655.68"/><text fill="#000000" font-family="sans-serif" font-size="14" lengthAdjust="spacing" textLength="94.7529" x="908.38" y="672.6751">-tiempo: float</text><text fill="#000000" font-family="sans-serif" font-size="14" lengthAdjust="spacing" textLength="161.5811" x="908.38" y="688.972">-fechaHora: FechaHora</text><text fill="#000000" font-family="sans-serif" font-size="14" lengthAdjust="spacing" textLength="111.4805" x="908.38" y="705.2689">-facturado: bool</text><line style="stroke:#181818;stroke-width:1;" x1="903.38" x2="1221.0245" y1="712.5706" y2="712.5706"/><text fill="#000000" font-family="sans-serif" font-size="14" lengthAdjust="spacing" textLength="223.2275" x="908.38" y="729.5657">+to_xml_element(): ET.Element</text><text fill="#000000" font-family="sans-serif" font-size="14" lengthAdjust="spacing" textLength="307.6445" x="908.38" y="745.8626">+from_xml_element(ET.Element): Consumo</text></g><!--class Fecha--><g class="entity" data-entity="Fecha" data-source-line="89" data-uid="ent0009" id="entity_Fecha"><rect fill="#F1F1F1" height="96.8906" rx="2.5" ry="2.5" style="stroke:#181818;stroke-width:0.5;" width="214.7266" x="360.84" y="360.16"/><ellipse cx="443.0456" cy="376.16" fill="#ADD1B2" rx="11" ry="11" style="stroke:#181818;stroke-width:1;"/><path d="M446.0143,381.8006 Q445.4362,382.0975 444.7956,382.2381 Q444.1549,382.3944 443.4518,382.3944 Q440.9518,382.3944 439.6237,380.7537 Q438.3112,379.0975 438.3112,375.9725 Q438.3112,372.8475 439.6237,371.1912 Q440.9518,369.535 443.4518,369.535 Q444.1549,369.535 444.7956,369.6912 Q445.4518,369.8475 446.0143,370.1444 L446.0143,372.8631 Q445.3893,372.285 444.7956,372.0194 Q444.2018,371.7381 443.5768,371.7381 Q442.2331,371.7381 441.5456,372.8162 Q440.8581,373.8787 440.8581,375.9725 Q440.8581,378.0662 441.5456,379.1444 Q442.2331,380.2069 443.5768,380.2069 Q444.2018,380.2069 444.7956,379.9412 Q445.3893,379.66 446.0143,379.0819 L446.0143,381.8006 Z " fill="#000000"/><text fill="#000000" font-family="sans-serif" font-size="14" lengthAdjust="spacing" textLength="41.8154" x="463.5456" y="381.0067">Fecha</text><line style="stroke:#181818;stroke-width:0.5;" x1="361.84" x2="574.5666" y1="392.16" y2="392.16"/><text fill="#000000" font-family="sans-serif" font-size="14" lengthAdjust="spacing" textLength="67.833" x="366.84" y="409.1551">-valor: str</text><line style="stroke:#181818;stroke-width:1;" x1="361.84" x2="574.5666" y1="416.4569" y2="416.4569"/><text fill="#000000" font-family="sans-serif" font-size="14" lengthAdjust="spacing" textLength="96.8994" x="366.84" y="433.452">+__str__(): str</text><text fill="#000000" font-family="sans-serif" font-size="14" lengthAdjust="spacing" textLength="202.7266" x="366.84" y="449.7489">+extraer_fecha(text: str): str</text></g><!--class FechaHora--><g class="entity" data-entity="FechaHora" data-source-line="96" data-uid="ent0010" id="entity_FechaHora"><rect fill="#F1F1F1" height="96.8906" rx="2.5" ry="2.5" style="stroke:#181818;stroke-width:0.5;" width="253.5" x="685.45" y="870.91"/><ellipse cx="770.3284" cy="886.91" fill="#ADD1B2" rx="11" ry="11" style="stroke:#181818;stroke-width:1;"/><path d="M773.2972,892.5506 Q772.719,892.8475 772.0784,892.9881 Q771.4378,893.1444 770.7347,893.1444 Q768.2347,893.1444 766.9065,891.5038 Q765.594,889.8475 765.594,886.7225 Q765.594,883.5975 766.9065,881.9413 Q768.2347,880.285 770.7347,880.285 Q771.4378,880.285 772.0784,880.4413 Q772.7347,880.5975 773.2972,880.8944 L773.2972,883.6131 Q772.6722,883.035 772.0784,882.7694 Q771.4847,882.4881 770.8597,882.4881 Q769.5159,882.4881 768.8284,883.5663 Q768.1409,884.6288 768.1409,886.7225 Q768.1409,888.8163 768.8284,889.8944 Q769.5159,890.9569 770.8597,890.9569 Q771.4847,890.9569 772.0784,890.6913 Q772.6722,890.41 773.2972,889.8319 L773.2972,892.5506 Z " fill="#000000"/><text fill="#000000" font-family="sans-serif" font-size="14" lengthAdjust="spacing" textLength="75.2432" x="790.8284" y="891.7567">FechaHora</text><line style="stroke:#181818;stroke-width:0.5;" x1="686.45" x2="937.95" y1="902.91" y2="902.91"/><text fill="#000000" font-family="sans-serif" font-size="14" lengthAdjust="spacing" textLength="67.833" x="691.45" y="919.9051">-valor: str</text><line style="stroke:#181818;stroke-width:1;" x1="686.45" x2="937.95" y1="927.2069" y2="927.2069"/><text fill="#000000" font-family="sans-serif" font-size="14" lengthAdjust="spacing" textLength="96.8994" x="691.45" y="944.202">+__str__(): str</text><text fill="#000000" font-family="sans-serif" font-size="14" lengthAdjust="spacing" textLength="241.5" x="691.45" y="960.4989">+extraer_fecha_hora(text: str): str</text></g><!--class Factura--><g class="entity" data-entity="Factura" data-source-line="103" data-uid="ent0011" id="entity_Factura"><rect fill="#F1F1F1" height="227.2656" rx="2.5" ry="2.5" style="stroke:#181818;stroke-width:0.5;" width="282.7031" x="1276.85" y="7"/><ellipse cx="1387.4384" cy="23" fill="#ADD1B2" rx="11" ry="11" style="stroke:#181818;stroke-width:1;"/><path d="M1390.4071,28.6406 Q1389.829,28.9375 1389.1884,29.0781 Q1388.5478,29.2344 1387.8446,29.2344 Q1385.3446,29.2344 1384.0165,27.5938 Q1382.704,25.9375 1382.704,22.8125 Q1382.704,19.6875 1384.0165,18.0313 Q1385.3446,16.375 1387.8446,16.375 Q1388.5478,16.375 1389.1884,16.5313 Q1389.8446,16.6875 1390.4071,16.9844 L1390.4071,19.7031 Q1389.7821,19.125 1389.1884,18.8594 Q1388.5946,18.5781 1387.9696,18.5781 Q1386.6259,18.5781 1385.9384,19.6563 Q1385.2509,20.7188 1385.2509,22.8125 Q1385.2509,24.9063 1385.9384,25.9844 Q1386.6259,27.0469 1387.9696,27.0469 Q1388.5946,27.0469 1389.1884,26.7813 Q1389.7821,26.5 1390.4071,25.9219 L1390.4071,28.6406 Z " fill="#000000"/><text fill="#000000" font-family="sans-serif" font-size="14" lengthAdjust="spacing" textLength="53.0264" x="1407.9384" y="27.8467">Factura</text><line style="stroke:#181818;stroke-width:0.5;" x1="1277.85" x2="1558.5531" y1="39" y2="39"/><text fill="#000000" font-family="sans-serif" font-size="14" lengthAdjust="spacing" textLength="45.2471" x="1282.85" y="55.9951">-id: int</text><text fill="#000000" font-family="sans-serif" font-size="14" lengthAdjust="spacing" textLength="100.1533" x="1282.85" y="72.292">-nitCliente: str</text><text fill="#000000" font-family="sans-serif" font-size="14" lengthAdjust="spacing" textLength="171.1035" x="1282.85" y="88.5889">-fechaEmision: datetime</text><text fill="#000000" font-family="sans-serif" font-size="14" lengthAdjust="spacing" textLength="117.2227" x="1282.85" y="104.8857">-rango_inicio: str</text><text fill="#000000" font-family="sans-serif" font-size="14" lengthAdjust="spacing" textLength="98.1094" x="1282.85" y="121.1826">-rango_fin: str</text><text fill="#000000" font-family="sans-serif" font-size="14" lengthAdjust="spacing" textLength="220.2881" x="1282.85" y="137.4795">-detalles: List&lt;DetalleFactura&gt;</text><text fill="#000000" font-family="sans-serif" font-size="14" lengthAdjust="spacing" textLength="77.6836" x="1282.85" y="153.7764">-total: float</text><line style="stroke:#181818;stroke-width:1;" x1="1277.85" x2="1558.5531" y1="161.0781" y2="161.0781"/><text fill="#000000" font-family="sans-serif" font-size="14" lengthAdjust="spacing" textLength="153.2754" x="1282.85" y="178.0732">+generar(...): Factura</text><text fill="#000000" font-family="sans-serif" font-size="14" lengthAdjust="spacing" textLength="223.2275" x="1282.85" y="194.3701">+to_xml_element(): ET.Element</text><text fill="#000000" font-family="sans-serif" font-size="14" lengthAdjust="spacing" textLength="270.7031" x="1282.85" y="210.667">+write_xml(List&lt;Factura&gt;, Path): void</text><text fill="#000000" font-family="sans-serif" font-size="14" lengthAdjust="spacing" textLength="164.5615" x="1282.85" y="226.9639">+get_by_id(id): Factura</text></g><!--class DetalleFactura--><g class="entity" data-entity="DetalleFactura" data-source-line="118" data-uid="ent0012" id="entity_DetalleFactura"><rect fill="#F1F1F1" height="145.7813" rx="2.5" ry="2.5" style="stroke:#181818;stroke-width:0.5;" width="259.4199" x="1288.49" y="335.71"/><ellipse cx="1362.5095" cy="351.71" fill="#ADD1B2" rx="11" ry="11" style="stroke:#181818;stroke-width:1;"/><path d="M1365.4783,357.3506 Q1364.9002,357.6475 1364.2595,357.7881 Q1363.6189,357.9444 1362.9158,357.9444 Q1360.4158,357.9444 1359.0877,356.3037 Q1357.7752,354.6475 1357.7752,351.5225 Q1357.7752,348.3975 1359.0877,346.7412 Q1360.4158,345.085 1362.9158,345.085 Q1363.6189,345.085 1364.2595,345.2412 Q1364.9158,345.3975 1365.4783,345.6944 L1365.4783,348.4131 Q1364.8533,347.835 1364.2595,347.5694 Q1363.6658,347.2881 1363.0408,347.2881 Q1361.697,347.2881 1361.0095,348.3662 Q1360.322,349.4287 1360.322,351.5225 Q1360.322,353.6162 1361.0095,354.6944 Q1361.697,355.7569 1363.0408,355.7569 Q1363.6658,355.7569 1364.2595,355.4912 Q1364.8533,355.21 1365.4783,354.6319 L1365.4783,357.3506 Z " fill="#000000"/><text fill="#000000" font-family="sans-serif" font-size="14" lengthAdjust="spacing" textLength="102.8809" x="1383.0095" y="356.5567">DetalleFactura</text><line style="stroke:#181818;stroke-width:0.5;" x1="1289.49" x2="1546.9099" y1="367.71" y2="367.71"/><text fill="#000000" font-family="sans-serif" font-size="14" lengthAdjust="spacing" textLength="108.6504" x="1294.49" y="384.7051">-idInstancia: int</text><text fill="#000000" font-family="sans-serif" font-size="14" lengthAdjust="spacing" textLength="84.7383" x="1294.49" y="401.002">-horas: float</text><text fill="#000000" font-family="sans-serif" font-size="14" lengthAdjust="spacing" textLength="102.7373" x="1294.49" y="417.2989">-subtotal: float</text><text fill="#000000" font-family="sans-serif" font-size="14" lengthAdjust="spacing" textLength="198.5361" x="1294.49" y="433.5957">-consumos: List&lt;Consumo&gt;</text><text fill="#000000" font-family="sans-serif" font-size="14" lengthAdjust="spacing" textLength="247.4199" x="1294.49" y="449.8926">-recursos_cantidad: Dict&lt;int,float&gt;</text><line style="stroke:#181818;stroke-width:1;" x1="1289.49" x2="1546.9099" y1="457.1944" y2="457.1944"/><text fill="#000000" font-family="sans-serif" font-size="14" lengthAdjust="spacing" textLength="223.2275" x="1294.49" y="474.1895">+to_xml_element(): ET.Element</text></g><!--class Configururacion--><g class="entity" data-entity="Configururacion" data-source-line="130" data-uid="ent0013" id="entity_Configururacion"><rect fill="#F1F1F1" height="48" rx="2.5" ry="2.5" style="stroke:#181818;stroke-width:0.5;" width="143.7813" x="1584.31" y="384.6"/><ellipse cx="1599.31" cy="400.6" fill="#ADD1B2" rx="11" ry="11" style="stroke:#181818;stroke-width:1;"/><path d="M1602.2788,406.2406 Q1601.7006,406.5375 1601.06,406.6781 Q1600.4194,406.8344 1599.7163,406.8344 Q1597.2163,406.8344 1595.8881,405.1937 Q1594.5756,403.5375 1594.5756,400.4125 Q1594.5756,397.2875 1595.8881,395.6312 Q1597.2163,393.975 1599.7163,393.975 Q1600.4194,393.975 1601.06,394.1312 Q1601.7163,394.2875 1602.2788,394.5844 L1602.2788,397.3031 Q1601.6538,396.725 1601.06,396.4594 Q1600.4663,396.1781 1599.8413,396.1781 Q1598.4975,396.1781 1597.81,397.2562 Q1597.1225,398.3187 1597.1225,400.4125 Q1597.1225,402.5062 1597.81,403.5844 Q1598.4975,404.6469 1599.8413,404.6469 Q1600.4663,404.6469 1601.06,404.3812 Q1601.6538,404.1 1602.2788,403.5219 L1602.2788,406.2406 Z " fill="#000000"/><text fill="#000000" font-family="sans-serif" font-size="14" lengthAdjust="spacing" textLength="111.7813" x="1613.31" y="405.4467">Configururacion</text><line style="stroke:#181818;stroke-width:0.5;" x1="1585.31" x2="1727.0913" y1="416.6" y2="416.6"/><line style="stroke:#181818;stroke-width:0.5;" x1="1585.31" x2="1727.0913" y1="424.6" y2="424.6"/></g><!--link Configururacion to Recurso--><g class="link" data-entity-1="Configururacion" data-entity-2="Recurso" data-source-line="130" data-uid="lnk14" id="link_Configururacion_Recurso"><path codeLine="130" d="M1652.62,432.89 C1647.53,462.06 1636.59,513.05 1617.2,552.94 C1612.37,562.88 1606.76,572.84 1600.73,582.58" fill="none" id="Configururacion-Recurso" style="stroke:#181818;stroke-width:1;"/><text fill="#000000" font-family="sans-serif" font-size="13" lengthAdjust="spacing" textLength="222.1934" x="1624.2" y="549.0069">usa (map: recurso_id -&gt; cantidad)</text><text fill="#000000" font-family="sans-serif" font-size="13" lengthAdjust="spacing" textLength="8.271" x="1642.8053" y="452.7219">1</text><text fill="#000000" font-family="sans-serif" font-size="13" lengthAdjust="spacing" textLength="23.0356" x="1582.5708" y="572.036">0..*</text></g><!--link Categoria to Configuracion--><g class="link" data-entity-1="Categoria" data-entity-2="Configuracion" data-source-line="131" data-uid="lnk15" id="link_Categoria_Configuracion"><path codeLine="131" d="M166.2,210.16 C166.2,250.35 166.2,297.29 166.2,335.31" fill="none" id="Categoria-Configuracion" style="stroke:#181818;stroke-width:1;"/><polygon fill="#000000" points="171.2,277.8364,174.1389,268.7913,168.2611,268.7913,171.2,277.8364" style="stroke:#000000;stroke-width:1;"/><text fill="#000000" font-family="sans-serif" font-size="13" lengthAdjust="spacing" textLength="56.2847" x="180.2" y="277.3369">contiene</text><text fill="#000000" font-family="sans-serif" font-size="13" lengthAdjust="spacing" textLength="8.271" x="157.892" y="229.9637">1</text><text fill="#000000" font-family="sans-serif" font-size="13" lengthAdjust="spacing" textLength="23.0356" x="142.1056" y="324.6829">0..*</text></g><!--link Cliente to Instancia--><g class="link" data-entity-1="Cliente" data-entity-2="Instancia" data-source-line="132" data-uid="lnk16" id="link_Cliente_Instancia"><path codeLine="132" d="M654.62,234.66 C669.04,259.95 684.2,286.55 698.19,311.1" fill="none" id="Cliente-Instancia" style="stroke:#181818;stroke-width:1;"/><polygon fill="#000000" points="684.676,277.1803,682.7502,267.8668,677.6436,270.7775,684.676,277.1803" style="stroke:#000000;stroke-width:1;"/><text fill="#000000" font-family="sans-serif" font-size="13" lengthAdjust="spacing" textLength="38.9746" x="691.2" y="277.3369">posee</text><text fill="#000000" font-family="sans-serif" font-size="13" lengthAdjust="spacing" textLength="8.271" x="650.4996" y="254.5165">1</text><text fill="#000000" font-family="sans-serif" font-size="13" lengthAdjust="spacing" textLength="23.0356" x="670.0995" y="300.1325">0..*</text></g><!--link Instancia to Consumo--><g class="link" data-entity-1="Instancia" data-entity-2="Consumo" data-source-line="133" data-uid="lnk17" id="link_Instancia_Consumo"><path codeLine="133" d="M860.84,506.38 C903.86,545.06 952.24,588.56 990.79,623.22" fill="none" id="Instancia-Consumo" style="stroke:#181818;stroke-width:1;"/><polygon fill="#000000" points="916.9181,547.8494,912.157,539.6164,908.227,543.9873,916.9181,547.8494" style="stroke:#000000;stroke-width:1;"/><text fill="#000000" font-family="sans-serif" font-size="13" lengthAdjust="spacing" textLength="50.3877" x="922.2" y="549.0069">registra</text><text fill="#000000" font-family="sans-serif" font-size="13" lengthAdjust="spacing" textLength="8.271" x="860.137" y="525.8536">1</text><text fill="#000000" font-family="sans-serif" font-size="13" lengthAdjust="spacing" textLength="23.0356" x="959.2415" y="612.7963">0..*</text></g><!--link GrupoConsumos to Consumo--><g class="link" data-entity-1="GrupoConsumos" data-entity-2="Consumo" data-source-line="134" data-uid="lnk18" id="link_GrupoConsumos_Consumo"><path codeLine="134" d="M1083.52,489.96 C1078.94,532.43 1073.39,583.83 1069.1,623.55" fill="none" id="GrupoConsumos-Consumo" style="stroke:#181818;stroke-width:1;"/><polygon fill="#000000" points="1082.6634,549.4775,1086.5561,540.8001,1080.7122,540.1693,1082.6634,549.4775" style="stroke:#000000;stroke-width:1;"/><text fill="#000000" font-family="sans-serif" font-size="13" lengthAdjust="spacing" textLength="45.7793" x="1092.2" y="549.0069">agrega</text><text fill="#000000" font-family="sans-serif" font-size="13" lengthAdjust="spacing" textLength="8.271" x="1074.4416" y="509.6682">1</text><text fill="#000000" font-family="sans-serif" font-size="13" lengthAdjust="spacing" textLength="23.0356" x="1045.5986" y="612.7084">0..*</text></g><!--link Factura to DetalleFactura--><g class="link" data-entity-1="Factura" data-entity-2="DetalleFactura" data-source-line="135" data-uid="lnk19" id="link_Factura_DetalleFactura"><path codeLine="135" d="M1418.2,234.66 C1418.2,268.54 1418.2,304.76 1418.2,335.26" fill="none" id="Factura-DetalleFactura" style="stroke:#181818;stroke-width:1;"/><polygon fill="#000000" points="1423.2,277.8364,1426.1389,268.7913,1420.2611,268.7913,1423.2,277.8364" style="stroke:#000000;stroke-width:1;"/><text fill="#000000" font-family="sans-serif" font-size="13" lengthAdjust="spacing" textLength="56.2847" x="1432.2" y="277.3369">contiene</text><text fill="#000000" font-family="sans-serif" font-size="13" lengthAdjust="spacing" textLength="8.271" x="1409.9523" y="254.5165">1</text><text fill="#000000" font-family="sans-serif" font-size="13" lengthAdjust="spacing" textLength="23.0356" x="1394.1056" y="324.6281">0..*</text></g><!--link DetalleFactura to Consumo--><g class="link" data-entity-1="DetalleFactura" data-entity-2="Consumo" data-source-line="136" data-uid="lnk20" id="link_DetalleFactura_Consumo"><path codeLine="136" d="M1325.59,481.87 C1269.45,525.68 1198.46,581.09 1144.33,623.33" fill="none" id="DetalleFactura-Consumo" style="stroke:#181818;stroke-width:1;"/><text fill="#000000" font-family="sans-serif" font-size="13" lengthAdjust="spacing" textLength="99.4297" x="1252.2" y="549.0069">tiene (historial)</text><text fill="#000000" font-family="sans-serif" font-size="13" lengthAdjust="spacing" textLength="8.271" x="1308.3948" y="501.6416">1</text><text fill="#000000" font-family="sans-serif" font-size="13" lengthAdjust="spacing" textLength="23.0356" x="1129.0569" y="612.4644">0..*</text></g><!--link DetalleFactura to Recurso--><g class="link" data-entity-1="DetalleFactura" data-entity-2="Recurso" data-source-line="137" data-uid="lnk21" id="link_DetalleFactura_Recurso"><path codeLine="137" d="M1407.19,481.78 C1406.13,505.01 1407.66,530.53 1415.2,552.94 C1418.61,563.08 1423.12,573.06 1428.35,582.72" fill="none" id="DetalleFactura-Recurso" style="stroke:#181818;stroke-width:1;"/><text fill="#000000" font-family="sans-serif" font-size="13" lengthAdjust="spacing" textLength="196.7393" x="1416.2" y="549.0069">referencia recursos (cantidad)</text><text fill="#000000" font-family="sans-serif" font-size="13" lengthAdjust="spacing" textLength="8.271" x="1397.7723" y="501.543">1</text><text fill="#000000" font-family="sans-serif" font-size="13" lengthAdjust="spacing" textLength="23.0356" x="1398.2955" y="571.8319">0..*</text></g><!--link Cliente to Fecha--><g class="link" data-entity-1="Cliente" data-entity-2="Fecha" data-source-line="138" data-uid="lnk22" id="link_Cliente_Fecha"><path codeLine="138" d="M541.98,234.66 C523.4,278.22 505.514,320.141 490.944,354.301" fill="none" id="Cliente-to-Fecha" style="stroke:#181818;stroke-width:1;stroke-dasharray:7,7;"/><polygon fill="#181818" points="488.59,359.82,495.8002,353.1109,490.5516,355.2209,488.4416,349.9723,488.59,359.82" style="stroke:#181818;stroke-width:1;"/><text fill="#000000" font-family="sans-serif" font-size="13" lengthAdjust="spacing" textLength="22.9785" x="530.2" y="277.3369">usa</text></g><!--link Instancia to FechaHora--><g class="link" data-entity-1="Instancia" data-entity-2="FechaHora" data-source-line="139" data-uid="lnk23" id="link_Instancia_FechaHora"><path codeLine="139" d="M764.4,506.19 C777.02,614.98 796.3184,781.45 805.9584,864.53" fill="none" id="Instancia-to-FechaHora" style="stroke:#181818;stroke-width:1;stroke-dasharray:7,7;"/><polygon fill="#181818" points="806.65,870.49,809.586,861.0889,806.0737,865.5233,801.6393,862.011,806.65,870.49" style="stroke:#181818;stroke-width:1;"/><text fill="#000000" font-family="sans-serif" font-size="13" lengthAdjust="spacing" textLength="22.9785" x="798.2" y="692.9869">usa</text></g><!--link Consumo to FechaHora--><g class="link" data-entity-1="Consumo" data-entity-2="FechaHora" data-source-line="140" data-uid="lnk24" id="link_Consumo_FechaHora"><path codeLine="140" d="M992.23,753.5 C951.64,790.67 905.8058,832.6488 868.7058,866.6088" fill="none" id="Consumo-to-FechaHora" style="stroke:#181818;stroke-width:1;stroke-dasharray:7,7;"/><polygon fill="#181818" points="864.28,870.66,873.6195,867.5337,867.9682,867.284,868.2179,861.6326,864.28,870.66" style="stroke:#181818;stroke-width:1;"/><text fill="#000000" font-family="sans-serif" font-size="13" lengthAdjust="spacing" textLength="22.9785" x="916.2" y="836.9769">usa</text></g><!--SRC=[hLPBJzmm4BxdLrXS20MszBf2MrKjj4YLMhKSAbLLDElCPgSaTcHxwKlzxnqxBoS419G3Q3sUnpVVF9nzSOaL24jLNM9YhqZLOA0IiWHhNpbdQBrpU26r-ao_KPn4AdOBkVv1gX0RA2qcIR0Hhy5XeGs1-9C8SImeNmfIBlnMkbeRN0hhJ3ZdQAMXMf9MWr22AU3Im1g-wqYgrOQAdG6lZ7OftfDrfwzZwSeh7lE_G-5qzhCgCoonGkNIWwKukroSDQUWi36wwg-7ErRiyGUz7uOSUbzf4w-xNB7cjQOy-Tld7KDvREu6vSvOpUcz8UbEsVP8R4eDxeboYp4Eq3yrKUy16lXqJU3OnI2iaDj4HW97TLIvQoYr-RBLtYJayYIfj9ZdYjHUzINoAWMwB6TAiuvX7spWk3E9obaI1yAM4qLkI6XAoixkm53SgoLSnvKc3ZhfSMqCQiv6EgCLoSYOb7MW947NunUTu6bw86qpEn8VQiUWeFpAeRyTpBPxetg3oVMlZ1b9-SytLQCqKDS3dcaeoaSzU7kdRL1kuOAfySIU-qCG8xlEzKJjd3YBLklbav3Kfn3qv1RbLSOIX-cDkNzhThNcfEokqdPebvQLgAvvxtJ8MhPsmphpnuSKUbAn4PfHtQ2kKUNtqUGPpJCeInzjHdMqyhoeJTeHLdxk-nblYlCk3FvvzxEv0EbNY2_aMkloeIMBLQRxpGCQ48QmBRwmX_fwDF4ohgh9CX-eaHyA_EaCeCa2-DJnCTor6cFFFg7_y9xvfNX7Y8QbkRKyqr_1urb5DenLphtggCBcLG5Lw8pQOUhVcY3Ta8hV9CTrxr_NDysnnR5gggoTdxN98YzGeG6JBXOBpg8rU5G3Ty6En4Tmsvd5GtbAUHIafskCjcTjPkeyxJPkLBjRJ_EwQpJxPpgJe1pba4TloOEUQmQVxFFhKxQVDUAv__p9_JxpRj4ctRhiFYpsNkonPx5tibWys-jVxYK_GY3I2kfb1uw94iShqI4yI8OFix6FyOVBqYVEewnGh9Bk4HmR3FjzAMfjqMiEiXlEmuhmi0hcaGkpIiOhypO3ADZ4gtSL7IjEoZt2FRcxBKAZdcuPb-UbFBZRS23Ru0ODXdIxLX1fn7HBssAnQZTGg4z4KdyJDaXps-6QkVi7]--></g></svg>